<svg xmlns="http://www.w3.org/2000/svg" id="flag-icons-mw" viewBox="0 0 640 480" xmlns:c2pa="http://c2pa.org/manifest"><metadata><c2pa:manifest>AAAWgmp1bWIAAAAeanVtZGMycGEAEQAQgAAAqgA4m3EDYzJwYQAAABZcanVtYgAAAEdqdW1kYzJtYQARABCAAACqADibcQN1cm46YzJwYTpjOTViMWNhYS1iYzBhLTQwZDUtOTQ5Zi00N2M0NmI3NTMxY2EAAAADl2p1bWIAAAApanVtZGMyYXMAEQAQgAAAqgA4m3EDYzJwYS5hc3NlcnRpb25zAAAAALxqdW1iAAAARGp1bWRjYm9yABEAEIAAAKoAOJtxE2MycGEuaW5ncmVkaWVudC52MwAAAAAYYzJzaGQuTZbaVFunV/zdmV0CP30AAABwY2JvcqNpZGM6Zm9ybWF0bWltYWdlL3N2Zyt4bWxqaW5zdGFuY2VJRHgseG1wOmlpZDpiZTBiOGFlMy1kMjlkLTQ2OWEtYjQzMy02ODUyMTE1NGRiY2ZscmVsYXRpb25zaGlwaHBhcmVudE9mAAAB4mp1bWIAAABBanVtZGNib3IAEQAQgAAAqgA4m3ETYzJwYS5hY3Rpb25zLnYyAAAAABhjMnNomLwBb77NHQW2EsqywKKXsQAAAZljYm9yomdhY3Rpb25zgqJmYWN0aW9ua2MycGEub3BlbmVkanBhcmFtZXRlcnOha2luZ3JlZGllbnRzgaJjdXJseC1zZWxmI2p1bWJmPWMycGEuYXNzZXJ0aW9ucy9jMnBhLmluZ3JlZGllbnQudjNkaGFzaFgg8/kEdApJ+KFmk2oPKRyl0V2f758Ox181F4G+z85pjRGkZmFjdGlvbngdY29tLmFudGhyb3BpYy5jbGF1ZGUucHJvdmlkZWRqcGFyYW1ldGVyc6F4H2NvbS5hbnRocm9waWMub3JpZ2luLWNvbmZpZGVuY2VndW5rbm93bmtkZXNjcmlwdGlvbnhmQ2xhdWRlIHByb3ZpZGVkIHRoaXMgZmlsZSBhdCB0aGUgcmVxdWVzdCBvZiBhIHVzZXIgYW5kIG1heSBoYXZlIGNyZWF0ZWQgb3IgbW9kaWZpZWQgdGhlIGZpbGUgY29udGVudHMubXNvZnR3YXJlQWdlbnShZG5hbWVmQ2xhdWRlcmFsbEFjdGlvbnNJbmNsdWRlZPUAAADIanVtYgAAAEBqdW1kY2JvcgARABCAAACqADibcRNjMnBhLmhhc2guZGF0YQAAAAAYYzJzaCFwjdU3qnKTg6jP5H22/zAAAACAY2JvcqVjYWxnZnNoYTI1NmNwYWRNAAAAAAAAAAAAAAAAAGRoYXNoWCDMGOe/9JWiJqqOw2sVN17DNXSiS7WHY9kfP2933U4UMmRuYW1lbmp1bWJmIG1hbmlmZXN0amV4Y2x1c2lvbnOBomVzdGFydBiQZmxlbmd0aBkeBAAAAj5qdW1iAAAAJ2p1bWRjMmNsABEAEIAAAKoAOJtxA2MycGEuY2xhaW0udjIAAAACD2Nib3KlY2FsZ2ZzaGEyNTZpc2lnbmF0dXJleE1zZWxmI2p1bWJmPS9jMnBhL3VybjpjMnBhOmM5NWIxY2FhLWJjMGEtNDBkNS05NDlmLTQ3YzQ2Yjc1MzFjYS9jMnBhLnNpZ25hdHVyZWppbnN0YW5jZUlEeCx4bXA6aWlkOmU4NzI4NjMzLTFkNTgtNDM4MC1hMzdiLTc1M2VjMDVjNzdmYXJjcmVhdGVkX2Fzc2VydGlvbnODomN1cmx4LXNlbGYjanVtYmY9YzJwYS5hc3NlcnRpb25zL2MycGEuaW5ncmVkaWVudC52M2RoYXNoWCDz+QR0Ckn4oWaTag8pHKXRXZ/vnw7HXzUXgb7PzmmNEaJjdXJseCpzZWxmI2p1bWJmPWMycGEuYXNzZXJ0aW9ucy9jMnBhLmFjdGlvbnMudjJkaGFzaFgg7gVmU7Ml4iBrIp0XUeC5D05KqeP6XYNd7TCyzqkTdDGiY3VybHgpc2VsZiNqdW1iZj1jMnBhLmFzc2VydGlvbnMvYzJwYS5oYXNoLmRhdGFkaGFzaFggD1/Rb5wn/Zq9uwy1mm9NQji/Az2ZmNke7ywOk4KPSgt0Y2xhaW1fZ2VuZXJhdG9yX2luZm+jZG5hbWVvQW50aHJvcGljIEZpbGVzZ3ZlcnNpb25lMS4wLjBrc3BlY1ZlcnNpb25lMi40LjAAABA4anVtYgAAAChqdW1kYzJjcwARABCAAACqADibcQNjMnBhLnNpZ25hdHVyZQAAABAIY2JvctKEWQISogEmGCFZAgowggIGMIIBjaADAgECAhRA5aAK7sI50L64g/oGQgU9Z1UTADAKBggqhkjOPQQDAzBJMRcwFQYDVQQKEw5BbnRocm9waWMsIFBCQzEuMCwGA1UEAxMlQW50aHJvcGljIENvbnRlbnQgQ3JlZGVudGlhbHMgUm9vdCBDQTAeFw0yNjA4MDcxODQzNTZaFw0yODA4MDYxOTQzNTZaMEQxFzAVBgNVBAoTDkFudGhyb3BpYywgUEJDMSkwJwYDVQQDEyBBbnRocm9waWMgQ2xhdWRlIENvbnRlbnQgU2lnbmluZzBZMBMGByqGSM49AgEGCCqGSM49AwEHA0IABJh6CmvLUBgFFNU0vUKlOVtE6djd17L5SuwX0LemFisBM3dkd/3cyjxFA3Qo5S46fX0/ihY0VZ7mfb9KF703t5OjWDBWMA4GA1UdDwEB/wQEAwIHgDAVBgNVHSUEDjAMBgorBgEEAYPoXgIBMAwGA1UdEwEB/wQCMAAwHwYDVR0jBBgwFoAUzlHiBIFOZFsj+OPEz5o+nMHXXMIwCgYIKoZIzj0EAwMDZwAwZAIwMXMdFJ4BetLLVY7ORuE9noqbbAZOZn/aArXyTwFAZfKrPzxF2vPoJNf1+UCdg1XGAjBwX1zd9WGqYkqmL5SFqw1QySjr1zJfpJM9+1rdDwSPLMOPOjKuiXjoU/pUUeG9RwmhY3BhZFkNngAAAAAAAAAAAAAAAAAAAAAAAAAAAAAAAAAAAAAAAAAAAAAAAAAAAAAAAAAAAAAAAAAAAAAAAAAAAAAAAAAAAAAAAAAAAAAAAAAAAAAAAAAAAAAAAAAAAAAAAAAAAAAAAAAAAAAAAAAAAAAAAAAAAAAAAAAAAAAAAAAAAAAAAAAAAAAAAAAAAAAAAAAAAAAAAAAAAAAAAAAAAAAAAAAAAAAAAAAAAAAAAAAAAAAAAAAAAAAAAAAAAAAAAAAAAAAAAAAAAAAAAAAAAAAAAAAAAAAAAAAAAAAAAAAAAAAAAAAAAAAAAAAAAAAAAAAAAAAAAAAAAAAAAAAAAAAAAAAAAAAAAAAAAAAAAAAAAAAAAAAAAAAAAAAAAAAAAAAAAAAAAAAAAAAAAAAAAAAAAAAAAAAAAAAAAAAAAAAAAAAAAAAAAAAAAAAAAAAAAAAAAAAAAAAAAAAAAAAAAAAAAAAAAAAAAAAAAAAAAAAAAAAAAAAAAAAAAAAAAAAAAAAAAAAAAAAAAAAAAAAAAAAAAAAAAAAAAAAAAAAAAAAAAAAAAAAAAAAAAAAAAAAAAAAAAAAAAAAAAAAAAAAAAAAAAAAAAAAAAAAAAAAAAAAAAAAAAAAAAAAAAAAAAAAAAAAAAAAAAAAAAAAAAAAAAAAAAAAAAAAAAAAAAAAAAAAAAAAAAAAAAAAAAAAAAAAAAAAAAAAAAAAAAAAAAAAAAAAAAAAAAAAAAAAAAAAAAAAAAAAAAAAAAAAAAAAAAAAAAAAAAAAAAAAAAAAAAAAAAAAAAAAAAAAAAAAAAAAAAAAAAAAAAAAAAAAAAAAAAAAAAAAAAAAAAAAAAAAAAAAAAAAAAAAAAAAAAAAAAAAAAAAAAAAAAAAAAAAAAAAAAAAAAAAAAAAAAAAAAAAAAAAAAAAAAAAAAAAAAAAAAAAAAAAAAAAAAAAAAAAAAAAAAAAAAAAAAAAAAAAAAAAAAAAAAAAAAAAAAAAAAAAAAAAAAAAAAAAAAAAAAAAAAAAAAAAAAAAAAAAAAAAAAAAAAAAAAAAAAAAAAAAAAAAAAAAAAAAAAAAAAAAAAAAAAAAAAAAAAAAAAAAAAAAAAAAAAAAAAAAAAAAAAAAAAAAAAAAAAAAAAAAAAAAAAAAAAAAAAAAAAAAAAAAAAAAAAAAAAAAAAAAAAAAAAAAAAAAAAAAAAAAAAAAAAAAAAAAAAAAAAAAAAAAAAAAAAAAAAAAAAAAAAAAAAAAAAAAAAAAAAAAAAAAAAAAAAAAAAAAAAAAAAAAAAAAAAAAAAAAAAAAAAAAAAAAAAAAAAAAAAAAAAAAAAAAAAAAAAAAAAAAAAAAAAAAAAAAAAAAAAAAAAAAAAAAAAAAAAAAAAAAAAAAAAAAAAAAAAAAAAAAAAAAAAAAAAAAAAAAAAAAAAAAAAAAAAAAAAAAAAAAAAAAAAAAAAAAAAAAAAAAAAAAAAAAAAAAAAAAAAAAAAAAAAAAAAAAAAAAAAAAAAAAAAAAAAAAAAAAAAAAAAAAAAAAAAAAAAAAAAAAAAAAAAAAAAAAAAAAAAAAAAAAAAAAAAAAAAAAAAAAAAAAAAAAAAAAAAAAAAAAAAAAAAAAAAAAAAAAAAAAAAAAAAAAAAAAAAAAAAAAAAAAAAAAAAAAAAAAAAAAAAAAAAAAAAAAAAAAAAAAAAAAAAAAAAAAAAAAAAAAAAAAAAAAAAAAAAAAAAAAAAAAAAAAAAAAAAAAAAAAAAAAAAAAAAAAAAAAAAAAAAAAAAAAAAAAAAAAAAAAAAAAAAAAAAAAAAAAAAAAAAAAAAAAAAAAAAAAAAAAAAAAAAAAAAAAAAAAAAAAAAAAAAAAAAAAAAAAAAAAAAAAAAAAAAAAAAAAAAAAAAAAAAAAAAAAAAAAAAAAAAAAAAAAAAAAAAAAAAAAAAAAAAAAAAAAAAAAAAAAAAAAAAAAAAAAAAAAAAAAAAAAAAAAAAAAAAAAAAAAAAAAAAAAAAAAAAAAAAAAAAAAAAAAAAAAAAAAAAAAAAAAAAAAAAAAAAAAAAAAAAAAAAAAAAAAAAAAAAAAAAAAAAAAAAAAAAAAAAAAAAAAAAAAAAAAAAAAAAAAAAAAAAAAAAAAAAAAAAAAAAAAAAAAAAAAAAAAAAAAAAAAAAAAAAAAAAAAAAAAAAAAAAAAAAAAAAAAAAAAAAAAAAAAAAAAAAAAAAAAAAAAAAAAAAAAAAAAAAAAAAAAAAAAAAAAAAAAAAAAAAAAAAAAAAAAAAAAAAAAAAAAAAAAAAAAAAAAAAAAAAAAAAAAAAAAAAAAAAAAAAAAAAAAAAAAAAAAAAAAAAAAAAAAAAAAAAAAAAAAAAAAAAAAAAAAAAAAAAAAAAAAAAAAAAAAAAAAAAAAAAAAAAAAAAAAAAAAAAAAAAAAAAAAAAAAAAAAAAAAAAAAAAAAAAAAAAAAAAAAAAAAAAAAAAAAAAAAAAAAAAAAAAAAAAAAAAAAAAAAAAAAAAAAAAAAAAAAAAAAAAAAAAAAAAAAAAAAAAAAAAAAAAAAAAAAAAAAAAAAAAAAAAAAAAAAAAAAAAAAAAAAAAAAAAAAAAAAAAAAAAAAAAAAAAAAAAAAAAAAAAAAAAAAAAAAAAAAAAAAAAAAAAAAAAAAAAAAAAAAAAAAAAAAAAAAAAAAAAAAAAAAAAAAAAAAAAAAAAAAAAAAAAAAAAAAAAAAAAAAAAAAAAAAAAAAAAAAAAAAAAAAAAAAAAAAAAAAAAAAAAAAAAAAAAAAAAAAAAAAAAAAAAAAAAAAAAAAAAAAAAAAAAAAAAAAAAAAAAAAAAAAAAAAAAAAAAAAAAAAAAAAAAAAAAAAAAAAAAAAAAAAAAAAAAAAAAAAAAAAAAAAAAAAAAAAAAAAAAAAAAAAAAAAAAAAAAAAAAAAAAAAAAAAAAAAAAAAAAAAAAAAAAAAAAAAAAAAAAAAAAAAAAAAAAAAAAAAAAAAAAAAAAAAAAAAAAAAAAAAAAAAAAAAAAAAAAAAAAAAAAAAAAAAAAAAAAAAAAAAAAAAAAAAAAAAAAAAAAAAAAAAAAAAAAAAAAAAAAAAAAAAAAAAAAAAAAAAAAAAAAAAAAAAAAAAAAAAAAAAAAAAAAAAAAAAAAAAAAAAAAAAAAAAAAAAAAAAAAAAAAAAAAAAAAAAAAAAAAAAAAAAAAAAAAAAAAAAAAAAAAAAAAAAAAAAAAAAAAAAAAAAAAAAAAAAAAAAAAAAAAAAAAAAAAAAAAAAAAAAAAAAAAAAAAAAAAAAAAAAAAAAAAAAAAAAAAAAAAAAAAAAAAAAAAAAAAAAAAAAAAAAAAAAAAAAAAAAAAAAAAAAAAAAAAAAAAAAAAAAAAAAAAAAAAAAAAAAAAAAAAAAAAAAAAAAAAAAAAAAAAAAAAAAAAAAAAAAAAAAAAAAAAAAAAAAAAAAAAAAAAAAAAAAAAAAAAAAAAAAAAAAAAAAAAAAAAAAAAAAAAAAAAAAAAAAAAAAAAAAAAAAAAAAAAAAAAAAAAAAAAAAAAAAAAAAAAAAAAAAAAAAAAAAAAAAAAAAAAAAAAAAAAAAAAAAAAAAAAAAAAAAAAAAAAAAAAAAAAAAAAAAAAAAAAAAAAAAAAAAAAAAAAAAAAAAAAAAAAAAAAAAAAAAAAAAAAAAAAAAAAAAAAAAAAAAAAAAAAAAAAAAAAAAAAAAAAAAAAAAAAAAAAAAAAAAAAAAAAAAAAAAAAAAAAAAAAAAAAAAAAAAAAAAAAAAAAAAAAAAAAAAAAAAAAAAAAAAAAAAAAAAAAAAAAAAAAAAAAAAAAAAAAAAAAAAAAAAAAAAAAAAAAAAAAAAAAAAAAAAAAAAAAAAAAAAAAAAAAAAAAAAAAAAAAAAAAAAAAAAAAAAAAAAAAAAAAAAAAAAAAAAAAAAAAAAAAAAAAAAAAAAAAAAAAAAAAAAAAAAAAAAAAAAAAAAAAAAAAAAAAAAAAAAAAAAAAAAAAAAAAAAAAAAAAAAAAAAAAAAAAAAAAAAAAAAAAAAAAAAAAAAAAAAAAAAAAAAAAAAAAAAAAAAAAAAAAAAAAAAAAAAAAAAAAAAAAAAAAAAAAAAAAAAAAAAAAAAAAAAAAAAAAAAAAAAAAAAAAAAAAAAAAAAAAAAAAAAAAAAAAAAAAAAAAAAAAAAAAAAAAAAAAAAAAAAAAAAAAAAAAAAAAAAAAAAAAAAAAAAAAAAAAAAAAAAAAAAAAAAAAAAAAAAAAAAAAAAAAAAAAAAAAAAAAAAAAAAAAAAAAAAAAAAAAAAAAAAAAAAAAAAAAAAAAAAAAAAAAAAAAAAAAAAAAAAAAAAAAAAAAAAAAAAAAAAAAAAAAAAAAAAAAAAAAAAAAAAAAAAAAAAAAAAAAAAAAAAAAAAAAAAAAAAAAAAAAAAAAAAAAAAAAAAAAAAAAAAAAAAAAAAAAAAAAAAAAAAAAAAAAAAAAAAAAAAAAAAAAAAAAAAAAAAAAAAAAAAAAAAAAAAAAAAAAAAAAAAAAAAAAAAAAAAAAAAAAAAAAAAAAAAAAAAAAAAAAAAAAAAAAAAAAAAAAAAAAAAAAAAAAAAAAAAAAAAAAAAAAAAAAAAAAAAAAAAAAAAAAAAAAAAAAAAAAAAAAAAAAAAAAAAAAAAAAAAAAAAAAAAAAAAAAAAAAAAAAAAAAAAAAAAAAAAAAAAAAAAAAAAAAPZYQEbvBVIVOLLLvvD7Q/rZRXDgvRKSAZgOKS9QQpLovJ4bPXc2k9i5uwAVdWaxXPjRrswHIfTjp0vD/4clGhTm7YA=</c2pa:manifest></metadata>
  <g fill-rule="evenodd" stroke-width="1pt">
    <path fill="#f41408" d="M0 0h640v480H0z"/>
    <path fill="#21873b" d="M0 320h640v160H0z"/>
    <path fill="#000001" d="M0 0h640v160H0z"/>
    <path fill="#f31509" d="M220.5 141c22.3-49.2 84.5-72.8 138.8-52.5a98 98 0 0 1 58 52.5zm-26 6.4a332 332 0 0 1-52.4-7.8c-4.1-1.3-4.3-3.6-3.8-5.3s3.1-3.6 6.2-3c5.6 1.4 28.8 7 50 16.1m124.6-85.9c-4.2-21-5.2-44-4.8-48C314.7 9.6 317 9 319 9s4.7 1.8 4.7 4.7c0 5.3-.1 27-4.6 48zm11.6.5a249 249 0 0 1-.3-48.2c.8-3.9 3.2-4.4 5.1-4.2 2 .1 4.5 2.1 4.2 5-.5 5.3-2.6 26.9-9 47.4m10.4 1.3c-.2-21.3 3-44.3 4.1-48 1.1-3.9 3.6-4.2 5.5-3.9 2 .3 4.3 2.5 3.8 5.3-1 5.3-5.2 26.6-13.4 46.6m11 2.2c1.8-21.2 7.3-43.8 8.8-47.5s4-3.8 5.8-3.4c2 .5 4 2.8 3.3 5.6-1.6 5.1-7.7 26-17.8 45.3zm10.9 3.2c3.9-21 11.5-43.1 13.3-46.7 1.9-3.5 4.3-3.5 6.2-2.9 1.8.6 3.7 3.2 2.7 5.8A264 264 0 0 1 363 68.7m10.1 3.8c5.8-20.7 15.5-42 17.7-45.5 2.2-3.4 4.6-3.1 6.4-2.3 1.8.7 3.4 3.4 2.1 6-2.5 4.8-12.5 24.4-26.2 41.8m10 4.7a263 263 0 0 1 22-43.9c2.4-3.2 4.9-2.7 6.6-1.8a4.4 4.4 0 0 1 1.5 6.1c-3 4.6-14.9 23.4-30.1 39.6m9.4 5.5c9.7-19.4 23.3-39 26.1-42s5.2-2.3 6.8-1.3a4.4 4.4 0 0 1 1 6.2c-3.5 4.4-17.2 22.1-34 37zm8.8 6.2c11.6-18.6 27-37 30.1-39.7 3-2.8 5.4-2 6.9-.8a4.3 4.3 0 0 1 .3 6.2c-3.8 4.1-19.1 20.7-37.3 34.3m8.3 6.9a284 284 0 0 1 33.8-37.2c3.3-2.5 5.5-1.5 6.9-.3a4.3 4.3 0 0 1-.3 6.3c-4.1 3.8-21 19.1-40.4 31.2m7.6 7.5A278 278 0 0 1 454.4 69c3.6-2.3 5.7-1.1 7 .3 1.2 1.3 1.5 4.4-1 6.2a306 306 0 0 1-43.2 27.8m6.5 7.8A297 297 0 0 1 464 79.6c3.7-2 5.7-.6 6.8.9 1.2 1.4 1.1 4.5-1.4 6.1-4.8 3-24.3 15.6-45.7 24.5m5.9 8.3a307 307 0 0 1 43-28.1c4-1.7 5.9-.2 6.9 1.3 1 1.6.6 4.6-2 6a321 321 0 0 1-48 20.8zm5.4 9.6a313 313 0 0 1 45.8-24.4c4.1-1.4 5.8.3 6.6 1.9.9 1.6.3 4.6-2.6 5.8-5.3 2.2-27 11.4-49.8 16.7m4.2 9.2a320 320 0 0 1 48-20.8c4.2-1 5.7.8 6.4 2.5.6 1.6-.3 4.6-3.2 5.5-5.5 1.9-28 9.3-51.2 12.8m3.4 9.8a325 325 0 0 1 49.8-16.9c4.2-.6 5.6 1.2 6.1 3 .5 1.7-.7 4.5-3.7 5.3-5.7 1.3-28.8 7-52.2 8.6M307.8 62a252 252 0 0 1-9.7-47.4c0-3.9 2.3-4.8 4.2-5 2-.1 5 1.5 5.2 4.3.5 5.3 2.6 26.9.4 48.1zm-11 1.3a251 251 0 0 1-14.3-46.4c-.4-4 1.8-5 3.7-5.3s5 1 5.6 3.8a263 263 0 0 1 5 47.9m-11 2.2A259 259 0 0 1 267 20.3c-.8-3.9 1.3-5.1 3.2-5.6s5 .6 5.9 3.4c1.5 5.1 7.7 26 9.6 47.3zm-10.5 3A264 264 0 0 1 252.5 25c-1.1-3.8.8-5.2 2.6-5.8s5.1.2 6.2 2.8c2 5 10.2 25.4 14 46.4zM265.2 72a270 270 0 0 1-27-41.5c-1.4-3.7.4-5.3 2.2-6s5-.2 6.4 2.4c2.5 4.8 12.5 24.5 18.4 45.1m-10.3 5a276 276 0 0 1-31-39.2c-1.7-3.5-.1-5.2 1.6-6.1s5-.6 6.6 1.9c3 4.6 15 23.3 22.8 43.4m-9.4 5.4A285 285 0 0 1 211 45.7c-2.1-3.4-.7-5.2 1-6.3 1.5-1 5-1 6.7 1.4 3.4 4.3 17.1 22 26.8 41.5zm-8.7 6a292 292 0 0 1-37.9-33.9c-2.4-3.2-1.1-5 .4-6.2a5.5 5.5 0 0 1 6.8.8c3.8 4 19.2 20.7 30.7 39.3m-8.5 7a299 299 0 0 1-41-30.7c-2.8-3-1.7-5-.3-6.3a5.5 5.5 0 0 1 6.9.3c4.2 3.7 21 19 34.4 36.6zm-7.4 7A307 307 0 0 1 177.2 75c-3-2.8-2.1-4.8-.8-6.2 1.2-1.4 4.5-2.1 6.9-.3a292 292 0 0 1 37.6 34zm-7 8.2a313 313 0 0 1-46.2-23.8c-3.3-2.5-2.6-4.7-1.5-6.1 1.1-1.5 4.3-2.5 6.9-.9 4.8 3.1 24.3 15.5 40.8 30.8m-6.3 8.8c-22.2-7-44.9-17.6-48.4-19.9-3.6-2.2-3-4.4-2.1-6s4-2.8 6.8-1.4c5 2.7 25.8 13.5 43.7 27.3m-5.3 9c-22.8-5.3-46.3-14-50.1-16-3.7-2-3.5-4.2-2.6-5.8s3.7-3.1 6.6-2c5.3 2.3 27 11.4 46.1 23.8m-4.2 9a329 329 0 0 1-51.4-12.2c-4-1.6-3.8-3.9-3.2-5.5.7-1.7 3.5-3.4 6.4-2.5 5.6 1.9 28 9.3 48.2 20.2"/>
    <path fill="#f31509" d="M194.5 147.4a332 332 0 0 1-52.4-7.8c-4.1-1.3-4.3-3.6-3.8-5.3s3.1-3.6 6.2-3c5.6 1.4 28.8 7 50 16.1"/>
    <path d="M129.4 141.5h381.2v12.6H129.4z"/>
  </g>
</svg>
